<?xml version="1.0" encoding="UTF-8" standalone="no"?>
<!-- Created with Inkscape (http://www.inkscape.org/) -->

<svg
   xmlns:dc="http://purl.org/dc/elements/1.1/"
   xmlns:cc="http://creativecommons.org/ns#"
   xmlns:rdf="http://www.w3.org/1999/02/22-rdf-syntax-ns#"
   xmlns:svg="http://www.w3.org/2000/svg"
   xmlns="http://www.w3.org/2000/svg"
   xmlns:xlink="http://www.w3.org/1999/xlink"
   xmlns:sodipodi="http://sodipodi.sourceforge.net/DTD/sodipodi-0.dtd"
   xmlns:inkscape="http://www.inkscape.org/namespaces/inkscape"
   version="1.0"
   width="22"
   height="22"
   id="svg2816"
   style="display:inline"
   inkscape:version="0.47 r22583"
   sodipodi:docname="empty_cup.svg"
   inkscape:export-filename="/home/nevon/Desktop/ubuntu_mono_light/32x32/empty_cup.png"
   inkscape:export-xdpi="90"
   inkscape:export-ydpi="90">
  <metadata
     id="metadata8">
    <rdf:RDF>
      <cc:Work
         rdf:about="">
        <dc:format>image/svg+xml</dc:format>
        <dc:type
           rdf:resource="http://purl.org/dc/dcmitype/StillImage" />
        <dc:title></dc:title>
      </cc:Work>
    </rdf:RDF>
  </metadata>
  <sodipodi:namedview
     pagecolor="#ffffff"
     bordercolor="#666666"
     borderopacity="1"
     objecttolerance="10"
     gridtolerance="10"
     guidetolerance="10"
     inkscape:pageopacity="0"
     inkscape:pageshadow="2"
     inkscape:window-width="1440"
     inkscape:window-height="825"
     id="namedview6"
     showgrid="false"
     showguides="false"
     inkscape:guide-bbox="true"
     inkscape:zoom="2.8284271"
     inkscape:cx="-34.921692"
     inkscape:cy="-24.096221"
     inkscape:window-x="0"
     inkscape:window-y="24"
     inkscape:window-maximized="1"
     inkscape:current-layer="svg2816">
    <sodipodi:guide
       orientation="0,1"
       position="11.125,2.8125"
       id="guide2816" />
    <sodipodi:guide
       orientation="0,1"
       position="12.25,21.3125"
       id="guide2818" />
    <sodipodi:guide
       orientation="1,0"
       position="21.9375,13"
       id="guide2820" />
    <sodipodi:guide
       orientation="1,0"
       position="2,11.0625"
       id="guide2822" />
    <sodipodi:guide
       orientation="1,0"
       position="18.8125,11.75"
       id="guide3596" />
    <sodipodi:guide
       orientation="0,1"
       position="14.5625,14.3125"
       id="guide3598" />
    <sodipodi:guide
       orientation="0,1"
       position="-6.625,-24.375"
       id="guide3783" />
  </sodipodi:namedview>
  <defs
     id="defs2818">
    <linearGradient
       id="linearGradient3741">
      <stop
         style="stop-color:#3c3b37;stop-opacity:1;"
         offset="0"
         id="stop3743" />
      <stop
         style="stop-color:#5c5b56;stop-opacity:1;"
         offset="1"
         id="stop3745" />
    </linearGradient>
    <inkscape:perspective
       sodipodi:type="inkscape:persp3d"
       inkscape:vp_x="0 : 11 : 1"
       inkscape:vp_y="0 : 1000 : 0"
       inkscape:vp_z="22 : 11 : 1"
       inkscape:persp3d-origin="11 : 7.3333333 : 1"
       id="perspective10" />
    <inkscape:perspective
       sodipodi:type="inkscape:persp3d"
       inkscape:vp_x="0 : 0.5 : 1"
       inkscape:vp_y="0 : 1000 : 0"
       inkscape:vp_z="1 : 0.5 : 1"
       inkscape:persp3d-origin="0.5 : 0.33333333 : 1"
       id="perspective2898" />
    <inkscape:perspective
       id="perspective10-4"
       inkscape:persp3d-origin="11 : 7.3333333 : 1"
       inkscape:vp_z="22 : 11 : 1"
       inkscape:vp_y="0 : 1000 : 0"
       inkscape:vp_x="0 : 11 : 1"
       sodipodi:type="inkscape:persp3d" />
    <inkscape:perspective
       id="perspective3733"
       inkscape:persp3d-origin="0.5 : 0.33333333 : 1"
       inkscape:vp_z="1 : 0.5 : 1"
       inkscape:vp_y="0 : 1000 : 0"
       inkscape:vp_x="0 : 0.5 : 1"
       sodipodi:type="inkscape:persp3d" />
    <linearGradient
       inkscape:collect="always"
       xlink:href="#linearGradient3741"
       id="linearGradient3755"
       x1="8.625"
       y1="17.25"
       x2="8.625"
       y2="-0.5"
       gradientUnits="userSpaceOnUse"
       gradientTransform="matrix(6.92,0,0,1.859155,-152.66035,-80.775745)" />
    <inkscape:perspective
       id="perspective3938"
       inkscape:persp3d-origin="12 : 8 : 1"
       inkscape:vp_z="24 : 12 : 1"
       inkscape:vp_y="0 : 1000 : 0"
       inkscape:vp_x="0 : 12 : 1"
       sodipodi:type="inkscape:persp3d" />
    <inkscape:perspective
       id="perspective3985"
       inkscape:persp3d-origin="12 : 8 : 1"
       inkscape:vp_z="24 : 12 : 1"
       inkscape:vp_y="0 : 1000 : 0"
       inkscape:vp_x="0 : 12 : 1"
       sodipodi:type="inkscape:persp3d" />
  </defs>
  <g
     id="g3785"
     transform="translate(25.72101,-14.506098)">
    <path
       id="path3600-9"
       d="m -24.295135,23.439293 c 0,5.581778 0.04546,10.852754 8.046007,10.852754 6.060898,0 7.484407,-2.697085 7.827705,-6.67382 1.677439,0 3.274538,0.141295 3.274538,-0.779652 l 0,-1.715234 c 0,-0.821582 -1.061219,-0.87321 -3.149794,-0.87321 5.55e-4,-0.270925 0,-0.533741 0,-0.810838 l -15.998456,0 z"
       style="opacity:0.6;fill:#eae3d0;fill-opacity:1;stroke:none;stroke-width:1;marker-start:none" />
    <path
       id="path4085-9"
       d="m -20.796785,17.026539 c 0.437497,-0.255156 1.443739,-0.178609 1.574988,0.05103 0.131249,0.229641 -0.63437,1.760575 -0.72187,3.06187 -0.0875,1.301294 0.328123,2.219855 0.240623,2.959807 -0.153123,0.331703 -0.940617,0.22964 -0.984367,0.102062 -0.04375,-0.127578 -0.568745,-1.990215 -0.328122,-3.214963 0.240623,-1.224747 0.415622,-1.964699 0.218748,-2.959807 z"
       style="fill:#3a3935;fill-opacity:1;stroke:#eae3d0;stroke-width:0.29401717;stroke-linecap:butt;stroke-linejoin:miter;stroke-miterlimit:4;stroke-opacity:0.60784314;stroke-dasharray:none" />
    <path
       sodipodi:nodetypes="cscccccc"
       style="fill:#3a3935;fill-opacity:1;stroke:none;stroke-width:1;marker-start:none"
       d="m -23.458234,24.013817 c 0,4.777012 -0.01255,9.438541 7.149926,9.438541 5.861135,0 7.043132,-3.604473 7.043132,-6.541745 1.499838,0 3.369783,0.3915 3.369783,-0.431941 l 0.0442,-0.959107 c 0,-0.734596 -1.434997,-0.559787 -3.302442,-0.559787 4.96e-4,-0.24224 0,-0.698202 0,-0.945961 l -14.304599,0 z"
       id="path3845-3" />
    <path
       style="fill:#3a3935;fill-opacity:1;stroke:#eae3d0;stroke-width:0.29401717;stroke-linecap:butt;stroke-linejoin:miter;stroke-miterlimit:4;stroke-opacity:0.60784314;stroke-dasharray:none"
       d="m -16.730921,17.026539 c 0.437497,-0.255156 1.443739,-0.178609 1.574988,0.05103 0.131248,0.229641 -0.63437,1.760575 -0.72187,3.06187 -0.0875,1.301294 0.328123,2.219855 0.240623,2.959807 -0.153123,0.331703 -0.940617,0.22964 -0.984367,0.102062 -0.04375,-0.127578 -0.568745,-1.990215 -0.328122,-3.214963 0.240623,-1.224747 0.415621,-1.964699 0.218748,-2.959807 z"
       id="path4087-6" />
    <path
       id="path4089-0"
       d="m -12.930222,17.026539 c 0.437497,-0.255156 1.443739,-0.178609 1.574988,0.05103 0.131248,0.229641 -0.63437,1.760575 -0.72187,3.06187 -0.0875,1.301294 0.328123,2.219855 0.240623,2.959807 -0.153123,0.331703 -0.940617,0.22964 -0.984367,0.102062 -0.04375,-0.127578 -0.568745,-1.990215 -0.328122,-3.214963 0.240623,-1.224747 0.415621,-1.964699 0.218748,-2.959807 z"
       style="fill:#3a3935;fill-opacity:1;stroke:#eae3d0;stroke-width:0.29401717;stroke-linecap:butt;stroke-linejoin:miter;stroke-miterlimit:4;stroke-opacity:0.60784314;stroke-dasharray:none" />
  </g>
</svg>
